<?xml version="1.0" standalone="no"?>
<svg xmlns="http://www.w3.org/2000/svg" viewBox="0 0 124.464 36" width="124.464" height="36"><g fill="#a110ad" color="#a110ad" transform="translate(0 4) scale(0.3076924)"><svg width="91.0" height="91.0" x="0.0" y="0.0" viewBox="0 0 91 91"><g><path d="M24.9,82.6c11.2,1.6,22.5,2.5,33.8,1.3c10.2-1,23.9-2.4,29.3-12.6c2.5-4.8,2.1-9.9-1-14.3c-2.9-4.1-7-7.2-12.2-7.2   c-0.3-2.5-0.8-5-1.3-7.4c-1.2-6.2-3.2-17.2-4-19c-0.9-2-3.3-3-5-3.7c-3-1.2-6-1.9-9.2-2.2c0-3.1-2-5.8-5.1-7.5   c-0.1-0.1-0.2-0.1-0.4-0.2C50.4,9.2,51,8.6,51.7,8c1.8-1.4-0.5-3.9-2.3-3c-1.7,0.8-2.9,2.4-3.6,4.1c-3.3-0.4-6.9,2.3-8.2,5.1   c-2.1,4.5,1.2,9.3,5.4,11.1c4.4,1.8,9.6,0.3,11.5-4.1c0.1-0.3,0.2-0.6,0.3-0.8c2.2,0.4,4.3,1,6.4,1.7c0.9,0.3,3.4,0.8,4,1.6   c1,1.4-0.5,1.6-1.4,2.5c-2.6,2.6-2.9,6.8-2.6,10.3c0.2,2.5,0.8,5,0.7,7.5c-0.1,1.2-0.7,5-2.3,2.2c-0.7-1.2-1-2.5-1.3-3.7   c-0.7-2.7-1.8-7.9-5.8-6.2c-1.4,0.6-2.2,2-2.4,3.5c-0.5,2.8-0.1,6.3,0.1,9.1c0.1,1.1,0.7,3.1,0.1,4.1c-0.9,1.5-2.6,0.2-3.2-0.9   c-0.8-1.4-0.9-3.3-1.3-4.9c-0.7-2.6-2.5-9.1-6.4-8.1c-3.4,0.9-5,6.5-5.7,9.4c-0.4,1.4-0.6,2.8-1,4.2c-0.2,1-0.3,2.9-1,3.7   c-1.9,2.2-2.9-5.2-2.9-6.4c-0.1-6.8,1-13.6,2.7-20.2c5.2,2.1,11,2.7,16.7,2.4c1.5-0.1,1.5-2.2,0-2.3c-7.3-0.4-15.3-1.6-21.1-6.3   c0.9-0.4,1.7-0.8,2.7-1.1c1.7-0.5,3.4-0.6,5-1.1c1.4-0.4,1.6-2.8,0-3c-2-0.3-4.1,0.2-5.9,0.9c-1.6,0.6-3.4,1.3-4.7,2.4   c-3.4,2.4-4.6,7.5-5.3,11.4c-1.1,5.7-2,11.4-2.7,17.1c-0.2-0.1-0.4-0.1-0.6-0.1c-4.3,0.2-7.4,2-10.4,5s-3.8,7-3.6,11.1   C1.9,76.4,16.5,81.4,24.9,82.6z M50.7,19.7c-1.5,2.8-5.5,2.6-7.7,0.8c-2.6-2.1-2.6-5.2,0.4-7c0.4-0.3,0.8-0.4,1.2-0.5   c-0.3,1.8-0.2,3.8,1,4.9c0.4,0.4,1,0.4,1.4,0c1-0.9,1.1-2.5,1.3-3.9C50.7,15.2,52.2,16.9,50.7,19.7z M20.2,49.1   c0.5-3.5,1-7,1.6-10.5c0.5-3.1,0.8-6.4,1.8-9.4C24,28,24.5,27,25.2,26c1,0.8,2.1,1.5,3.2,2.2c-1.9,6.8-3,13.8-3,20.8   c0,3.8,0.6,10.4,5.3,11.5c5.1,1.2,5.4-8.3,6.2-11.3c0.4-1.5,0.8-3.1,1.5-4.5c0.3-0.5,1.1-2.3,1.6-2.4c0.5-0.1,1.2,1.4,1.3,1.6   c1.6,2.9,1.5,6.3,3,9.2c1.6,3.2,6.3,5.6,8.7,1.7c0.9-1.5,0.8-3.2,0.7-4.8c-0.1-1-0.1-2-0.2-3c0-1.3-0.7-5.2-0.1-6.3   c1.1-2,1.4,0.7,1.6,1.7c0.4,1.3,0.7,2.6,1.3,3.8c0.8,1.7,2.1,4.2,4.2,4.4c5.3,0.7,3.9-9.4,3.7-12.1c-0.3-3.1-0.6-6.4,1.2-9   c0.4-0.6,1.1-1.1,1.8-1.6c0,0.1,3.3,17.4,4.1,21.6c0.9,5.6-1.1,10.5-6,13.3c-4.6,2.6-10.1,4-15.3,4.5c-5.5,0.5-11,0.1-16.4-1.3   C29,64.8,22.2,62.9,20,58.5C18.7,55.8,19.8,51.9,20.2,49.1z M6.1,60.7c1.3-4.3,5.6-6.1,9.5-7.1v0.1c-0.6,5.6,1.9,9.5,6.8,12.2   c5.2,2.9,11.1,4.6,17,5.3c6,0.7,12.1,0.3,18-1.2c5.2-1.3,11.1-3.4,14.7-7.7c1.9-2.3,2.8-4.9,3-7.6c4.3,0.3,8.6,4.3,9.5,8.5   c1.1,5.5-4,9.6-8.4,11.7c-5,2.4-10.9,2.9-16.3,3.5c-5.3,0.6-10.6,1-16,1c-10.8,0-22.7-0.5-32.2-6.3C6.9,70.4,4.4,66.2,6.1,60.7z"></path></g></svg></g><path fill="#c41fc4" fill-rule="nonzero" d="M4.61 19.37Q3.24 19.37 2.20 18.64Q1.15 17.90 0.58 16.55Q0 15.19 0 13.42L0 13.42Q0 10.42 1.52 7.27Q3.05 4.13 5.38 2.08Q7.70 0.02 9.94 0.02L9.94 0.02Q10.85 0.02 11.38 0.31L11.38 0.31L11.11 0.31Q9.12 0.31 7.01 2.44Q4.90 4.56 3.50 7.73Q2.11 10.90 2.11 13.75L2.11 13.75Q2.11 15.84 2.92 17.20Q3.72 18.55 5.33 18.55L5.33 18.55Q7.46 18.55 9.23 16.45Q10.99 14.35 12.01 11.21Q13.03 8.06 13.03 5.16L13.03 5.16Q13.03 3.94 12.77 2.89Q12.50 1.85 11.95 1.85L11.95 1.85Q11.40 1.85 10.72 2.72Q10.03 3.60 9.47 4.82Q8.90 6.05 8.71 6.98L8.71 6.98Q8.14 6.84 7.85 6.53Q7.56 6.22 7.56 5.81L7.56 5.81Q7.56 4.99 8.32 3.89Q9.07 2.78 10.10 1.99Q11.14 1.20 11.90 1.20L11.90 1.20Q13.01 1.20 13.48 2.62Q13.94 4.03 13.94 5.83L13.94 5.83Q13.94 9.94 12.48 13.02Q11.02 16.10 8.83 17.74Q6.65 19.37 4.61 19.37L4.61 19.37ZM22.20 17.76Q21.38 17.76 20.95 17.34Q20.52 16.92 20.52 16.22L20.52 16.22Q20.52 15.91 20.63 15.49Q20.74 15.07 20.86 14.66L20.86 14.66Q21 14.23 21.11 13.75Q21.22 13.27 21.22 12.89L21.22 12.89Q21.22 11.71 20.26 11.71L20.26 11.71Q19.34 11.71 18.35 12.67Q17.35 13.63 16.57 14.81Q15.79 15.98 14.81 17.64L14.81 17.64Q14.40 17.64 14.06 17.51Q13.73 17.38 13.54 17.11L13.54 17.11Q13.54 16.99 13.85 16.25L13.85 16.25Q14.45 14.71 14.83 13.45Q15.22 12.19 15.24 11.21L15.24 11.21Q15.41 11.02 15.72 10.86Q16.03 10.70 16.34 10.70L16.34 10.70Q16.99 10.70 16.99 11.33L16.99 11.33Q16.99 11.69 16.78 12.59Q16.56 13.49 16.22 14.50L16.22 14.50Q17.38 12.72 18.67 11.50Q19.97 10.27 21.22 10.27L21.22 10.27Q22.10 10.27 22.55 10.91Q22.99 11.54 22.99 12.43L22.99 12.43Q22.99 12.96 22.86 13.44Q22.73 13.92 22.46 14.54L22.46 14.54Q22.25 15.07 22.13 15.46Q22.01 15.84 22.01 16.22L22.01 16.22Q22.01 17.14 22.73 17.14L22.73 17.14Q23.54 17.14 24.42 16.06Q25.30 14.98 26.09 13.39L26.09 13.39L26.35 13.70Q24.62 17.76 22.20 17.76L22.20 17.76ZM27.62 18Q26.64 18 26.17 17.33Q25.70 16.66 25.70 15.53L25.70 15.53Q25.70 13.37 27.19 9.66Q28.68 5.95 30.52 2.98Q32.35 0 33.17 0L33.17 0Q33.50 0 33.73 0.59Q33.96 1.18 33.96 1.78L33.96 1.78Q33.96 2.88 33.06 5.03Q32.16 7.18 30.70 9.38Q29.23 11.59 27.58 12.96L27.58 12.96Q27.26 14.35 27.26 15.38L27.26 15.38Q27.26 17.23 28.32 17.23L28.32 17.23Q29.21 17.23 30.13 16.10Q31.06 14.98 31.78 13.39L31.78 13.39L32.14 13.58Q30.07 18 27.62 18L27.62 18ZM27.79 12.14Q29.11 10.82 30.37 8.82Q31.63 6.82 32.42 4.98Q33.22 3.14 33.22 2.33L33.22 2.33Q33.22 1.94 33.05 1.94L33.05 1.94Q32.71 1.94 31.67 3.59Q30.62 5.23 29.52 7.61Q28.42 9.98 27.79 12.14L27.79 12.14ZM32.33 24Q31.68 24 31.25 23.66Q30.82 23.33 30.82 22.73L30.82 22.73Q30.82 21.77 31.43 21.04Q32.04 20.30 32.93 19.76Q33.82 19.22 35.47 18.38L35.47 18.38Q36.19 16.54 36.82 13.99L36.82 13.99Q35.95 15.41 35.09 16.22Q34.22 17.04 33.31 17.04L33.31 17.04Q32.54 17.04 31.97 16.54Q31.39 16.03 31.39 15.10L31.39 15.10Q31.39 14.23 31.78 12.98Q32.16 11.74 32.66 10.80Q33.17 9.86 33.50 9.86L33.50 9.86Q33.72 9.86 34.14 10.04Q34.56 10.22 34.56 10.42L34.56 10.42Q34.08 11.11 33.53 12.66Q32.98 14.21 32.98 15.12L32.98 15.12Q32.98 16.08 33.84 16.08L33.84 16.08Q34.49 16.08 35.36 15.19Q36.24 14.30 37.03 13.01L37.03 13.01Q37.15 12.60 37.27 11.90L37.27 11.90Q37.37 11.45 37.67 11.06Q37.97 10.68 38.50 10.68L38.50 10.68Q38.71 10.68 39 10.75L39 10.75Q39 11.40 38.46 13.42Q37.92 15.43 37.13 17.47L37.13 17.47Q38.33 16.99 39.38 15.97Q40.44 14.95 41.09 13.39L41.09 13.39L41.40 13.63Q40.51 16.44 36.86 18.12L36.86 18.12Q35.81 20.71 34.64 22.36Q33.48 24 32.33 24L32.33 24ZM32.21 23.23Q32.47 23.23 32.95 22.79Q33.43 22.34 34.03 21.38Q34.63 20.42 35.23 18.96L35.23 18.96Q33.96 19.63 33.23 20.10Q32.50 20.57 32.03 21.17Q31.56 21.77 31.56 22.51L31.56 22.51Q31.56 22.75 31.73 22.99Q31.90 23.23 32.21 23.23L32.21 23.23ZM44.28 19.37Q43.27 19.30 42.96 18.84Q42.65 18.38 42.65 17.47L42.65 17.47Q42.65 16.46 43.13 14.93Q43.61 13.39 44.62 10.63L44.62 10.63Q44.76 10.30 45 9.62L45 9.62Q44.40 9.67 43.15 9.84L43.15 9.84L42.34 9.96Q42.43 8.38 45.48 8.28L45.48 8.28Q47.04 3.98 48.26 1.44L48.26 1.44Q47.64 1.39 47.33 1.39L47.33 1.39Q45.79 1.39 44.96 1.70Q44.14 2.02 43.81 2.64Q43.49 3.26 43.49 4.32L43.49 4.32Q43.49 5.30 43.80 6.22L43.80 6.22Q42.22 5.95 42.22 4.34L42.22 4.34Q42.22 3.12 43.09 2.16Q43.97 1.20 45.48 0.66Q46.99 0.12 48.82 0.12L48.82 0.12Q49.70 0.12 51.34 0.31L51.34 0.31Q51.58 0.34 52.30 0.41Q53.02 0.48 53.59 0.48L53.59 0.48Q54.55 0.48 55.37 0.24L55.37 0.24Q54.53 1.20 53.93 1.56Q53.33 1.92 52.66 1.92L52.66 1.92Q52.20 1.92 51.02 1.75L51.02 1.75Q50.42 1.63 49.25 1.51L49.25 1.51Q48.58 3.14 46.94 8.30L46.94 8.30Q48.10 8.38 49.10 8.52L49.10 8.52Q50.62 8.66 51.14 8.69L51.14 8.69Q50.88 9.07 50.51 9.23Q50.14 9.38 49.36 9.43Q48.58 9.48 46.58 9.53L46.58 9.53L45.53 13.10Q44.33 17.14 44.28 19.37L44.28 19.37ZM54.19 18Q53.21 18 52.74 17.33Q52.27 16.66 52.27 15.53L52.27 15.53Q52.27 13.37 53.76 9.66Q55.25 5.95 57.08 2.98Q58.92 0 59.74 0L59.74 0Q60.07 0 60.30 0.59Q60.53 1.18 60.53 1.78L60.53 1.78Q60.53 2.88 59.63 5.03Q58.73 7.18 57.26 9.38Q55.80 11.59 54.14 12.96L54.14 12.96Q53.83 14.35 53.83 15.38L53.83 15.38Q53.83 17.23 54.89 17.23L54.89 17.23Q55.78 17.23 56.70 16.10Q57.62 14.98 58.34 13.39L58.34 13.39L58.70 13.58Q56.64 18 54.19 18L54.19 18ZM54.36 12.14Q55.68 10.82 56.94 8.82Q58.20 6.82 58.99 4.98Q59.78 3.14 59.78 2.33L59.78 2.33Q59.78 1.94 59.62 1.94L59.62 1.94Q59.28 1.94 58.24 3.59Q57.19 5.23 56.09 7.61Q54.98 9.98 54.36 12.14L54.36 12.14ZM59.02 18.41Q58.22 18.41 57.73 17.89Q57.24 17.38 57.24 16.42L57.24 16.42Q57.24 15 58.26 13.25Q59.28 11.50 60.84 10.27Q62.40 9.05 63.89 9.05L63.89 9.05Q64.82 9.05 65.45 9.55Q66.07 10.06 66.07 10.85L66.07 10.85Q66.07 11.40 65.76 11.64Q65.45 11.88 64.90 11.88L64.90 11.88Q65.02 11.45 65.02 11.04L65.02 11.04Q65.02 10.44 64.73 10.07Q64.44 9.70 63.84 9.70L63.84 9.70Q62.78 9.70 61.62 10.87Q60.46 12.05 59.68 13.68Q58.90 15.31 58.90 16.49L58.90 16.49Q58.90 17.42 59.54 17.42L59.54 17.42Q60.50 17.42 61.80 15.90Q63.10 14.38 64.58 12.19L64.58 12.19Q64.90 12.24 65.22 12.40Q65.54 12.55 65.54 12.79L65.54 12.79Q65.54 12.98 65.32 13.40Q65.09 13.82 65.04 13.90L65.04 13.90Q64.63 14.59 64.39 15.13Q64.15 15.67 64.15 16.13L64.15 16.13Q64.15 16.54 64.36 16.86Q64.56 17.18 64.97 17.18L64.97 17.18Q65.66 17.18 66.72 16.19Q67.78 15.19 68.81 13.39L68.81 13.39L69.05 13.63Q68.54 14.90 67.75 15.90Q66.96 16.90 66.05 17.45Q65.14 18 64.30 18L64.30 18Q63.46 18 63.01 17.51Q62.57 17.02 62.57 16.32L62.57 16.32Q62.57 16.01 62.64 15.62L62.64 15.62Q61.56 17.06 60.71 17.74Q59.86 18.41 59.02 18.41L59.02 18.41ZM76.08 17.76Q75.26 17.76 74.83 17.34Q74.40 16.92 74.40 16.22L74.40 16.22Q74.40 15.91 74.51 15.49Q74.62 15.07 74.74 14.66L74.74 14.66Q74.88 14.23 74.99 13.75Q75.10 13.27 75.10 12.89L75.10 12.89Q75.10 11.71 74.14 11.71L74.14 11.71Q73.22 11.71 72.23 12.67Q71.23 13.63 70.45 14.81Q69.67 15.98 68.69 17.64L68.69 17.64Q68.28 17.64 67.94 17.51Q67.61 17.38 67.42 17.11L67.42 17.11Q67.42 16.99 67.73 16.25L67.73 16.25Q68.33 14.71 68.71 13.45Q69.10 12.19 69.12 11.21L69.12 11.21Q69.29 11.02 69.60 10.86Q69.91 10.70 70.22 10.70L70.22 10.70Q70.87 10.70 70.87 11.33L70.87 11.33Q70.87 11.69 70.66 12.59Q70.44 13.49 70.10 14.50L70.10 14.50Q71.26 12.72 72.55 11.50Q73.85 10.27 75.10 10.27L75.10 10.27Q75.98 10.27 76.43 10.91Q76.87 11.54 76.87 12.43L76.87 12.43Q76.87 12.96 76.74 13.44Q76.61 13.92 76.34 14.54L76.34 14.54Q76.13 15.07 76.01 15.46Q75.89 15.84 75.89 16.22L75.89 16.22Q75.89 17.14 76.61 17.14L76.61 17.14Q77.42 17.14 78.30 16.06Q79.18 14.98 79.97 13.39L79.97 13.39L80.23 13.70Q78.50 17.76 76.08 17.76L76.08 17.76ZM82.03 18.50Q80.47 18.50 79.75 17.57Q79.03 16.63 79.03 15.36L79.03 15.36Q79.03 14.40 79.37 14.00Q79.70 13.61 80.10 13.44Q80.50 13.27 80.57 13.20L80.57 13.20Q82.10 11.52 82.94 9.72L82.94 9.72L82.94 9.43Q82.94 8.62 83.22 8.21Q83.50 7.80 83.88 7.80L83.88 7.80Q84.07 7.80 84.17 7.88Q84.26 7.97 84.26 8.11L84.26 8.11Q84.26 8.21 84.19 8.51Q84.12 8.81 84.12 9.17L84.12 9.17Q84.12 9.65 84.25 10.19Q84.38 10.73 84.67 11.59L84.67 11.59Q85.01 12.62 85.19 13.39Q85.37 14.16 85.37 14.95L85.37 14.95Q85.37 15.58 85.22 16.13L85.22 16.13Q86.09 15.98 86.83 15.35Q87.58 14.71 88.25 13.42L88.25 13.42L88.46 13.66Q88.03 14.90 87.14 15.62Q86.26 16.34 85.10 16.51L85.10 16.51Q84.74 17.50 83.93 18Q83.11 18.50 82.03 18.50L82.03 18.50ZM83.71 16.10Q83.81 15.48 83.81 14.98L83.81 14.98Q83.81 14.26 83.69 13.54Q83.57 12.82 83.33 11.88L83.33 11.88Q83.11 10.92 83.06 10.63L83.06 10.63Q81.84 12.65 80.74 13.75L80.74 13.75Q81.12 14.59 81.90 15.24Q82.68 15.89 83.71 16.10L83.71 16.10ZM82.08 17.66Q83.18 17.66 83.59 16.49L83.59 16.49Q82.63 16.30 81.84 15.73Q81.05 15.17 80.64 14.50L80.64 14.50Q80.11 14.52 80.11 15.34L80.11 15.34Q80.11 16.25 80.65 16.96Q81.19 17.66 82.08 17.66L82.08 17.66Z" transform="translate(36, 9.36)"></path></svg>